<svg width="26" height="34" viewBox="0 0 26 34" fill="none" xmlns="http://www.w3.org/2000/svg">
<path d="M24.5805 6.36015L19.3605 1.14015C18.7305 0.520153 17.4905 0.000152588 16.6105 0.000152588H1.61049C0.720488 0.000152588 0.000488281 0.720153 0.000488281 1.61015V31.5302C0.000488281 32.4202 0.720488 33.1402 1.61049 33.1402H24.1105C25.0005 33.1402 25.7205 32.4202 25.7205 31.5302V9.11015C25.7105 8.22015 25.2005 6.98015 24.5805 6.36015ZM17.1405 2.28015C17.4205 2.38015 17.7105 2.53015 17.8305 2.65015L23.0705 7.89015C23.1905 8.01015 23.3405 8.29015 23.4405 8.58015H17.1505V2.28015H17.1405ZM15.0005 2.14015V9.10015C15.0005 9.99015 15.7205 10.7102 16.6105 10.7102H23.5705V31.0002H2.14049V2.14015H15.0005Z" fill="#626877"/>
</svg>
