<svg width="26" height="27" viewBox="0 0 26 27" fill="none" xmlns="http://www.w3.org/2000/svg">
<g filter="url(#filter0_d)">
<path d="M13.1967 20.9644C13.1967 21.0749 13.1107 21.1608 13.0002 21.1608C11.8094 21.1608 10.8395 20.1909 10.8395 19.0001C10.8395 18.8896 10.9255 18.8036 11.036 18.8036C11.1464 18.8036 11.2324 18.8896 11.2324 19.0001C11.2324 19.9699 12.0304 20.7679 13.0002 20.7679C13.1107 20.7679 13.1967 20.8539 13.1967 20.9644ZM23.2145 17.4286C21.3976 15.894 19.286 13.144 19.286 7.21436C19.286 4.85722 17.3339 2.27909 14.0806 1.8003C14.142 1.65298 14.1788 1.49338 14.1788 1.3215C14.1788 0.670835 13.6509 0.142932 13.0002 0.142932C12.3496 0.142932 11.8217 0.670835 11.8217 1.3215C11.8217 1.49338 11.8585 1.65298 11.9199 1.8003C8.66654 2.27909 6.71453 4.85722 6.71453 7.21436C6.71453 13.144 4.60292 15.894 2.78596 17.4286C2.78596 18.288 3.49801 19.0001 4.35739 19.0001H9.85739C9.85739 20.7311 11.2692 22.1429 13.0002 22.1429C14.7313 22.1429 16.1431 20.7311 16.1431 19.0001H21.6431C22.5025 19.0001 23.2145 18.288 23.2145 17.4286Z" fill="#616776"/>
</g>
<defs>
<filter id="filter0_d" x="0.785889" y="0.142929" width="24.4286" height="26" filterUnits="userSpaceOnUse" color-interpolation-filters="sRGB">
<feFlood flood-opacity="0" result="BackgroundImageFix"/>
<feColorMatrix in="SourceAlpha" type="matrix" values="0 0 0 0 0 0 0 0 0 0 0 0 0 0 0 0 0 0 127 0"/>
<feOffset dy="2"/>
<feGaussianBlur stdDeviation="1"/>
<feColorMatrix type="matrix" values="0 0 0 0 0 0 0 0 0 0 0 0 0 0 0 0 0 0 0.25 0"/>
<feBlend mode="normal" in2="BackgroundImageFix" result="effect1_dropShadow"/>
<feBlend mode="normal" in="SourceGraphic" in2="effect1_dropShadow" result="shape"/>
</filter>
</defs>
</svg>
