<svg width="34" height="30" viewBox="0 0 34 30" fill="none" xmlns="http://www.w3.org/2000/svg">
<path d="M15.1135 27.7029C14.4423 28.7212 12.9843 29.2766 11.2254 29.0683C9.48972 28.8832 7.49942 27.9111 6.11084 26.3143C7.19856 25.7126 8.65657 25.7357 10.184 26.0134C11.7346 26.3143 13.3777 26.8929 15.1135 27.7029Z" fill="#2088E8"/>
<path d="M15.3227 27.1239C15.3922 25.8974 14.8599 24.6708 14.1424 23.5599C13.425 22.4491 12.5224 21.477 11.3884 20.6902C10.7404 21.7085 10.6941 23.0276 11.3653 24.3005C12.0596 25.5502 13.4944 26.7074 15.3227 27.1239Z" fill="#2088E8"/>
<path d="M9.44382 24.5319C8.47181 25.2493 6.99066 25.3187 5.46322 24.6013C3.93579 23.907 2.45464 22.3796 1.69092 20.4356C2.89435 20.2041 4.25979 20.6901 5.57894 21.4307C6.89809 22.2176 8.1941 23.2359 9.44382 24.5319Z" fill="#2088E8"/>
<path d="M9.83675 24.0459C10.3459 22.935 10.3227 21.639 10.0682 20.3893C9.8136 19.1396 9.30446 17.9593 8.5176 16.8716C7.56873 17.6122 7.08273 18.8156 7.26787 20.2042C7.45302 21.5928 8.37874 23.1202 9.83675 24.0459Z" fill="#2088E8"/>
<path d="M5.39359 19.7412C4.39845 20.0421 3.19501 19.7181 2.15358 18.7461C1.11214 17.7972 0.302138 16.2235 0.140137 14.4646C1.20471 14.5572 2.19986 15.2746 3.10244 16.2235C4.00501 17.1724 4.79188 18.3758 5.39359 19.7412Z" fill="#2088E8"/>
<path d="M5.85642 19.4639C6.597 18.7233 6.96728 17.6588 7.083 16.571C7.19871 15.4602 7.083 14.3262 6.68957 13.1922C5.71756 13.5856 5.02327 14.465 4.83813 15.6685C4.62984 16.8488 4.95384 18.3068 5.85642 19.4639Z" fill="#2088E8"/>
<path d="M3.31088 14.4649C2.36202 14.4649 1.41316 13.8401 0.765157 12.7292C0.117153 11.6415 -0.183705 10.0678 0.117153 8.49405C1.01973 8.84119 1.71402 9.74377 2.26945 10.8083C2.80174 11.8729 3.14888 13.1226 3.31088 14.4649Z" fill="#2088E8"/>
<path d="M3.79734 14.3491C4.65363 13.9094 5.25535 13.0762 5.64878 12.1505C6.04221 11.2017 6.2505 10.1602 6.18107 9.02621C5.23221 9.11879 4.39906 9.74365 3.91306 10.7619C3.42706 11.7571 3.33448 13.0994 3.79734 14.3491Z" fill="#2088E8"/>
<path d="M2.89426 9.32709C2.08426 9.07252 1.41311 8.3088 1.13539 7.19794C0.857679 6.11022 0.950251 4.67535 1.57511 3.3562C2.2694 3.86535 2.66283 4.81421 2.87112 5.85564C3.07941 6.94336 3.10255 8.12366 2.89426 9.32709Z" fill="#2088E8"/>
<path d="M3.33362 9.35031C4.16677 9.18831 4.90735 8.60973 5.48592 7.8923C6.06449 7.15172 6.48107 6.24915 6.7125 5.20771C5.87935 5.092 4.99992 5.46228 4.32877 6.226C3.65762 6.98972 3.24105 8.14687 3.33362 9.35031Z" fill="#2088E8"/>
<path d="M3.61159 5.85563C4.42159 5.18449 5.0696 4.25877 5.5556 3.26362C6.0416 2.24533 6.41189 1.13446 6.50446 0.000457764C5.46303 0.370746 4.51417 1.29646 3.98188 2.43047C3.42645 3.54133 3.26445 4.83734 3.61159 5.85563Z" fill="#2088E8"/>
<path d="M18.8862 27.7029C19.5574 28.7212 21.0154 29.2766 22.7743 29.0683C24.51 28.8832 26.5003 27.9111 27.8889 26.3143C26.8011 25.7126 25.3431 25.7357 23.8157 26.0134C22.2651 26.3143 20.622 26.8929 18.8862 27.7029Z" fill="#2088E8"/>
<path d="M18.6775 27.1239C18.608 25.8974 19.1403 24.6708 19.8578 23.5599C20.5752 22.4491 21.4778 21.477 22.6118 20.6902C23.2598 21.7085 23.3061 23.0276 22.6349 24.3005C21.9638 25.5502 20.5058 26.7074 18.6775 27.1239Z" fill="#2088E8"/>
<path d="M24.5562 24.5319C25.5282 25.2493 27.0093 25.3187 28.5367 24.6013C30.0642 23.907 31.5453 22.3796 32.3091 20.4356C31.1056 20.2041 29.7402 20.6901 28.421 21.4307C27.1019 22.2176 25.8059 23.2359 24.5562 24.5319Z" fill="#2088E8"/>
<path d="M24.1624 24.0459C23.6533 22.935 23.6764 21.639 23.931 20.3893C24.1856 19.1396 24.6947 17.9593 25.4816 16.8716C26.4304 17.6122 26.9164 18.8156 26.7313 20.2042C26.5461 21.5928 25.6436 23.1202 24.1624 24.0459Z" fill="#2088E8"/>
<path d="M28.606 19.7412C29.6011 20.0421 30.8045 19.7181 31.846 18.7461C32.8874 17.7972 33.6974 16.2235 33.8594 14.4646C32.7948 14.5572 31.7997 15.2746 30.8971 16.2235C29.9945 17.1724 29.2308 18.3758 28.606 19.7412Z" fill="#2088E8"/>
<path d="M28.1433 19.4639C27.4027 18.7233 27.0324 17.6588 26.9167 16.571C26.801 15.4602 26.9167 14.3262 27.3101 13.1922C28.2822 13.5856 28.9764 14.465 29.1616 15.6685C29.3699 16.8488 29.0459 18.3068 28.1433 19.4639Z" fill="#2088E8"/>
<path d="M30.689 14.4649C31.6378 14.4649 32.5867 13.8401 33.2347 12.7292C33.8827 11.6415 34.1836 10.0678 33.8827 8.49405C32.9801 8.84119 32.2858 9.74377 31.7304 10.8083C31.2213 11.8729 30.851 13.1226 30.689 14.4649Z" fill="#2088E8"/>
<path d="M30.226 14.3491C29.3697 13.9094 28.768 13.0762 28.3746 12.1505C27.9812 11.2017 27.7729 10.1602 27.8423 9.02621C28.7912 9.11879 29.6243 9.74365 30.1103 10.7619C30.5732 11.7571 30.6889 13.0994 30.226 14.3491Z" fill="#2088E8"/>
<path d="M31.1058 9.32709C31.9158 9.07252 32.587 8.3088 32.8647 7.19794C33.1424 6.11022 33.0498 4.67535 32.425 3.3562C31.7307 3.86535 31.3372 4.81421 31.129 5.85564C30.9207 6.94336 30.9207 8.12366 31.1058 9.32709Z" fill="#2088E8"/>
<path d="M30.6889 9.35031C29.8558 9.18831 29.1152 8.60973 28.5366 7.8923C27.9581 7.15172 27.5415 6.24915 27.3101 5.20771C28.1432 5.092 29.0226 5.46228 29.6938 6.226C30.3418 6.98972 30.7584 8.14687 30.6889 9.35031Z" fill="#2088E8"/>
<path d="M30.4114 5.85563C29.6014 5.18449 28.9534 4.25877 28.4674 3.26362C27.9814 2.24533 27.6111 1.13446 27.5186 0.000457764C28.56 0.370746 29.5089 1.29646 30.0411 2.43047C30.5966 3.54133 30.7354 4.83734 30.4114 5.85563Z" fill="#2088E8"/>
</svg>
