<svg width="21" height="21" viewBox="0 0 21 21" fill="none" xmlns="http://www.w3.org/2000/svg">
<g filter="url(#filter0_d)">
<path d="M18.3839 13.134C18.3839 12.7992 18.25 12.4643 18.0089 12.2233L14.0714 8.28577L18.0089 4.34827C18.25 4.1072 18.3839 3.77238 18.3839 3.43756C18.3839 3.10274 18.25 2.76792 18.0089 2.52685L16.1875 0.705417C15.9464 0.464346 15.6116 0.330417 15.2768 0.330417C14.942 0.330417 14.6071 0.464346 14.3661 0.705417L10.4286 4.64292L6.49107 0.705417C6.25 0.464346 5.91518 0.330417 5.58036 0.330417C5.24554 0.330417 4.91071 0.464346 4.66964 0.705417L2.84821 2.52685C2.60714 2.76792 2.47321 3.10274 2.47321 3.43756C2.47321 3.77238 2.60714 4.1072 2.84821 4.34827L6.78571 8.28577L2.84821 12.2233C2.60714 12.4643 2.47321 12.7992 2.47321 13.134C2.47321 13.4688 2.60714 13.8036 2.84821 14.0447L4.66964 15.8661C4.91071 16.1072 5.24554 16.2411 5.58036 16.2411C5.91518 16.2411 6.25 16.1072 6.49107 15.8661L10.4286 11.9286L14.3661 15.8661C14.6071 16.1072 14.942 16.2411 15.2768 16.2411C15.6116 16.2411 15.9464 16.1072 16.1875 15.8661L18.0089 14.0447C18.25 13.8036 18.3839 13.4688 18.3839 13.134Z" fill="#616776"/>
</g>
<defs>
<filter id="filter0_d" x="0.473145" y="0.330444" width="19.9107" height="19.9107" filterUnits="userSpaceOnUse" color-interpolation-filters="sRGB">
<feFlood flood-opacity="0" result="BackgroundImageFix"/>
<feColorMatrix in="SourceAlpha" type="matrix" values="0 0 0 0 0 0 0 0 0 0 0 0 0 0 0 0 0 0 127 0"/>
<feOffset dy="2"/>
<feGaussianBlur stdDeviation="1"/>
<feColorMatrix type="matrix" values="0 0 0 0 0 0 0 0 0 0 0 0 0 0 0 0 0 0 0.25 0"/>
<feBlend mode="normal" in2="BackgroundImageFix" result="effect1_dropShadow"/>
<feBlend mode="normal" in="SourceGraphic" in2="effect1_dropShadow" result="shape"/>
</filter>
</defs>
</svg>
