<svg width="58" height="52" viewBox="0 0 58 52" fill="none" xmlns="http://www.w3.org/2000/svg">
<path opacity="0.4" d="M35.4444 29.2398H16.3427L8.00521 35.5469C7.85982 35.6563 7.68709 35.7227 7.50639 35.7386C7.32569 35.7546 7.14415 35.7195 6.98212 35.6372C6.82009 35.555 6.68396 35.4289 6.58899 35.273C6.49403 35.1171 6.44398 34.9376 6.44444 34.7547V29.25C4.73576 29.2484 3.09752 28.563 1.8893 27.3444C0.68108 26.1258 0.00159964 24.4734 0 22.75L0 6.5C0.00159964 4.77659 0.68108 3.12422 1.8893 1.90559C3.09752 0.686951 4.73576 0.00161343 6.44444 0H35.4444C37.1531 0.00161343 38.7914 0.686951 39.9996 1.90559C41.2078 3.12422 41.8873 4.77659 41.8889 6.5V22.75C41.8888 23.6031 41.7219 24.4478 41.3979 25.2357C41.0738 26.0237 40.599 26.7396 40.0005 27.3423C39.4019 27.9451 38.6915 28.4229 37.9097 28.7485C37.128 29.0741 36.2902 29.241 35.4444 29.2398Z" fill="#CFD7EA"/>
<path d="M57.9997 22.75V39C57.9981 40.7234 57.3186 42.3758 56.1104 43.5944C54.9022 44.8131 53.2639 45.4984 51.5552 45.5H48.333V51.0149C48.3335 51.1978 48.2834 51.3773 48.1885 51.5332C48.0935 51.6891 47.9574 51.8152 47.7953 51.8974C47.6333 51.9797 47.4518 52.0148 47.2711 51.9988C47.0904 51.9829 46.9176 51.9165 46.7722 51.8071L38.4347 45.5H25.7775C24.0688 45.4984 22.4305 44.8131 21.2223 43.5944C20.0141 42.3758 19.3346 40.7234 19.333 39V32.5H35.4441C38.0067 32.496 40.4631 31.4675 42.2751 29.6399C44.0871 27.8122 45.1068 25.3346 45.1108 22.75V16.25H51.5552C53.2639 16.2516 54.9022 16.937 56.1104 18.1556C57.3186 19.3742 57.9981 21.0266 57.9997 22.75Z" fill="#CFD7EA"/>
</svg>
