<svg width="25" height="26" viewBox="0 0 25 26" fill="none" xmlns="http://www.w3.org/2000/svg">
<g filter="url(#filter0_d)">
<path d="M12.5 0C6.70087 0 2 4.73612 2 10.5788C2 16.4214 6.70087 21.1575 12.5 21.1575C18.2991 21.1575 23 16.4214 23 10.5788C23 4.73612 18.2991 0 12.5 0ZM15.9841 15.2539C15.8189 15.4194 15.6458 15.593 15.5052 15.735C15.3786 15.863 15.2893 16.0208 15.244 16.1919C15.18 16.4333 15.1284 16.6773 15.042 16.9115L14.3057 18.9099C13.7232 19.0379 13.1203 19.11 12.5 19.11V17.9421C12.5716 17.4038 12.1765 16.3954 11.5419 15.7559C11.2878 15.5 11.1452 15.1528 11.1452 14.7906V13.4252C11.1452 12.9287 10.8797 12.4723 10.4483 12.2321C9.83986 11.893 8.97446 11.4191 8.38171 11.1184C7.89567 10.8718 7.44603 10.5578 7.04169 10.1906L7.00782 10.1599C6.71868 9.89691 6.46196 9.59988 6.24319 9.27518C5.84605 8.6878 5.19911 7.72164 4.77869 7.09374C5.64536 5.15288 7.20724 3.59422 9.14804 2.74749L10.1646 3.25979C10.6151 3.48672 11.1452 3.15699 11.1452 2.64938V2.16736C11.4834 2.11234 11.8277 2.07736 12.1778 2.06414L13.376 3.27131C13.6406 3.53791 13.6406 3.97002 13.376 4.23662L13.1774 4.43625L12.7396 4.87732C12.6075 5.0104 12.6075 5.22667 12.7396 5.35976L12.9382 5.55982C13.0703 5.6929 13.0703 5.90917 12.9382 6.04226L12.5995 6.38351C12.5359 6.44746 12.4497 6.48336 12.3599 6.48332H11.9792C11.8912 6.48332 11.8065 6.51788 11.743 6.58015L11.323 6.99179C11.2715 7.0423 11.2373 7.10798 11.2253 7.17936C11.2132 7.25074 11.224 7.32412 11.2561 7.38892L11.9162 8.71937C12.0288 8.9463 11.8649 9.21332 11.6134 9.21332H11.3746C11.2929 9.21332 11.2142 9.18347 11.1528 9.12972L10.7599 8.78591C10.671 8.7082 10.5635 8.65514 10.4481 8.63196C10.3326 8.60877 10.2132 8.61625 10.1015 8.65367L8.78181 9.09687C8.68106 9.13072 8.59343 9.19565 8.53135 9.28247C8.46927 9.36929 8.43587 9.47359 8.43591 9.5806C8.43591 9.77383 8.54429 9.95 8.71577 10.0366L9.18488 10.2729C9.58329 10.4738 10.0228 10.5783 10.4682 10.5783C10.9136 10.5783 11.4246 11.7424 11.823 11.9433H14.6491C15.0086 11.9433 15.3528 12.0871 15.6072 12.343L16.1869 12.927C16.429 13.171 16.565 13.502 16.5649 13.8471C16.5649 14.1086 16.5135 14.3674 16.4138 14.6089C16.3141 14.8503 16.1681 15.0695 15.9841 15.2539ZM19.6552 11.3572C19.4101 11.2954 19.1963 11.1439 19.0562 10.9319L18.2949 9.78151C18.1835 9.61342 18.1241 9.41585 18.1241 9.21375C18.1241 9.01165 18.1835 8.81408 18.2949 8.646L19.1243 7.39276C19.2225 7.24474 19.3572 7.12445 19.5155 7.04511L20.0651 6.76827C20.6375 7.91657 20.9677 9.20821 20.9677 10.5788C20.9677 10.9486 20.9364 11.3107 20.8907 11.6682L19.6552 11.3572Z" fill="#616776"/>
</g>
<defs>
<filter id="filter0_d" x="0" y="0" width="25" height="25.1575" filterUnits="userSpaceOnUse" color-interpolation-filters="sRGB">
<feFlood flood-opacity="0" result="BackgroundImageFix"/>
<feColorMatrix in="SourceAlpha" type="matrix" values="0 0 0 0 0 0 0 0 0 0 0 0 0 0 0 0 0 0 127 0"/>
<feOffset dy="2"/>
<feGaussianBlur stdDeviation="1"/>
<feColorMatrix type="matrix" values="0 0 0 0 0 0 0 0 0 0 0 0 0 0 0 0 0 0 0.25 0"/>
<feBlend mode="normal" in2="BackgroundImageFix" result="effect1_dropShadow"/>
<feBlend mode="normal" in="SourceGraphic" in2="effect1_dropShadow" result="shape"/>
</filter>
</defs>
</svg>
