<svg width="23" height="24" viewBox="0 0 23 24" fill="none" xmlns="http://www.w3.org/2000/svg">
<g filter="url(#filter0_d)">
<path d="M15.9224 12.3405C16.0574 11.9231 15.8241 11.4934 15.419 11.3584C15.0016 11.2233 14.5596 11.4566 14.4246 11.874C14.0195 13.1876 12.8041 14.0716 11.4291 14.0716C10.0541 14.0716 8.83866 13.1876 8.43352 11.874C8.29848 11.4566 7.85652 11.2233 7.45138 11.3584C7.03397 11.4934 6.80071 11.9231 6.93576 12.3405C7.5496 14.3171 9.35428 15.643 11.4291 15.643C13.5038 15.643 15.3085 14.3171 15.9224 12.3405ZM9.85763 7.00012C9.85763 6.12847 9.15785 5.42869 8.2862 5.42869C7.41455 5.42869 6.71477 6.12847 6.71477 7.00012C6.71477 7.87177 7.41455 8.57155 8.2862 8.57155C9.15785 8.57155 9.85763 7.87177 9.85763 7.00012ZM16.1433 7.00012C16.1433 6.12847 15.4436 5.42869 14.5719 5.42869C13.7003 5.42869 13.0005 6.12847 13.0005 7.00012C13.0005 7.87177 13.7003 8.57155 14.5719 8.57155C15.4436 8.57155 16.1433 7.87177 16.1433 7.00012ZM19.2862 10.143C19.2862 14.4767 15.7628 18.0001 11.4291 18.0001C7.09535 18.0001 3.57192 14.4767 3.57192 10.143C3.57192 5.80927 7.09535 2.28584 11.4291 2.28584C15.7628 2.28584 19.2862 5.80927 19.2862 10.143ZM20.8576 10.143C20.8576 4.93762 16.6344 0.714407 11.4291 0.714407C6.2237 0.714407 2.00049 4.93762 2.00049 10.143C2.00049 15.3483 6.2237 19.5716 11.4291 19.5716C16.6344 19.5716 20.8576 15.3483 20.8576 10.143Z" fill="#616776"/>
</g>
<defs>
<filter id="filter0_d" x="0.000488281" y="0.714417" width="22.8571" height="22.8571" filterUnits="userSpaceOnUse" color-interpolation-filters="sRGB">
<feFlood flood-opacity="0" result="BackgroundImageFix"/>
<feColorMatrix in="SourceAlpha" type="matrix" values="0 0 0 0 0 0 0 0 0 0 0 0 0 0 0 0 0 0 127 0"/>
<feOffset dy="2"/>
<feGaussianBlur stdDeviation="1"/>
<feColorMatrix type="matrix" values="0 0 0 0 0 0 0 0 0 0 0 0 0 0 0 0 0 0 0.25 0"/>
<feBlend mode="normal" in2="BackgroundImageFix" result="effect1_dropShadow"/>
<feBlend mode="normal" in="SourceGraphic" in2="effect1_dropShadow" result="shape"/>
</filter>
</defs>
</svg>
