<svg width="30" height="23" viewBox="0 0 30 23" fill="none" xmlns="http://www.w3.org/2000/svg">
<g filter="url(#filter0_d)">
<path d="M27.1652 11.1786C27.1652 10.5759 26.4821 10.4286 26 10.4286H11.4286C10.25 10.4286 8.66964 11.1518 7.89286 12.0625L3.39286 17.3661C3.17857 17.6071 2.97768 17.9286 2.97768 18.25C2.97768 18.8527 3.66071 19 4.14286 19H18.7143C19.8929 19 21.4732 18.2768 22.25 17.3661L26.75 12.0625C26.9643 11.8214 27.1652 11.5 27.1652 11.1786ZM22.5714 6.57143C22.5714 4.92411 21.2188 3.57143 19.5714 3.57143H12.2857V3.14286C12.2857 1.49553 10.933 0.142856 9.28571 0.142856H5C3.35268 0.142856 2 1.49553 2 3.14286V16C2 16.1071 2.01339 16.2277 2.01339 16.3348L2.08036 16.2545L6.59375 10.9509C7.67857 9.66518 9.75446 8.71428 11.4286 8.71428H22.5714V6.57143Z" fill="#616776"/>
</g>
<defs>
<filter id="filter0_d" x="0" y="0.142853" width="29.1652" height="22.8571" filterUnits="userSpaceOnUse" color-interpolation-filters="sRGB">
<feFlood flood-opacity="0" result="BackgroundImageFix"/>
<feColorMatrix in="SourceAlpha" type="matrix" values="0 0 0 0 0 0 0 0 0 0 0 0 0 0 0 0 0 0 127 0"/>
<feOffset dy="2"/>
<feGaussianBlur stdDeviation="1"/>
<feColorMatrix type="matrix" values="0 0 0 0 0 0 0 0 0 0 0 0 0 0 0 0 0 0 0.25 0"/>
<feBlend mode="normal" in2="BackgroundImageFix" result="effect1_dropShadow"/>
<feBlend mode="normal" in="SourceGraphic" in2="effect1_dropShadow" result="shape"/>
</filter>
</defs>
</svg>
