<svg width="16" height="21" viewBox="0 0 16 21" fill="none" xmlns="http://www.w3.org/2000/svg">
<path d="M8.82217 20.5764C14.8762 11.9369 16 11.0503 16 7.87512C16 3.52587 12.4183 0.00012207 8 0.00012207C3.58171 0.00012207 0 3.52587 0 7.87512C0 11.0503 1.12375 11.9369 7.17783 20.5764C7.57512 21.1414 8.42492 21.1413 8.82217 20.5764ZM8 11.1564C6.15904 11.1564 4.66667 9.68731 4.66667 7.87512C4.66667 6.06293 6.15904 4.59387 8 4.59387C9.84096 4.59387 11.3333 6.06293 11.3333 7.87512C11.3333 9.68731 9.84096 11.1564 8 11.1564Z" fill="#616776"/>
</svg>
