<svg width="29" height="24" viewBox="0 0 29 24" fill="none" xmlns="http://www.w3.org/2000/svg">
<g filter="url(#filter0_d)">
<path d="M26.5 6.93756C26.0982 7.37952 25.6429 7.76792 25.1607 8.10274C22.9241 9.61613 20.6741 11.1429 18.4911 12.7233C17.3661 13.5536 15.9732 14.5715 14.5134 14.5715H14.5H14.4866C13.0268 14.5715 11.6339 13.5536 10.5089 12.7233C8.32589 11.1295 6.07589 9.61613 3.85268 8.10274C3.35714 7.76792 2.90179 7.37952 2.5 6.93756V17.5715C2.5 18.7501 3.46429 19.7143 4.64286 19.7143H24.3571C25.5357 19.7143 26.5 18.7501 26.5 17.5715V6.93756ZM26.5 3.00006C26.5 1.82149 25.5223 0.857203 24.3571 0.857203H4.64286C3.20982 0.857203 2.5 1.9822 2.5 3.2947C2.5 4.51345 3.85268 6.02685 4.80357 6.6697C6.87946 8.11613 8.98214 9.56256 11.058 11.0224C11.9286 11.6251 13.4018 12.8572 14.4866 12.8572H14.5H14.5134C15.5982 12.8572 17.0714 11.6251 17.942 11.0224C20.0179 9.56256 22.1205 8.11613 24.2098 6.6697C25.3884 5.85274 26.5 4.50006 26.5 3.00006Z" fill="#616776"/>
</g>
<defs>
<filter id="filter0_d" x="0.5" y="0.857208" width="28" height="22.8571" filterUnits="userSpaceOnUse" color-interpolation-filters="sRGB">
<feFlood flood-opacity="0" result="BackgroundImageFix"/>
<feColorMatrix in="SourceAlpha" type="matrix" values="0 0 0 0 0 0 0 0 0 0 0 0 0 0 0 0 0 0 127 0"/>
<feOffset dy="2"/>
<feGaussianBlur stdDeviation="1"/>
<feColorMatrix type="matrix" values="0 0 0 0 0 0 0 0 0 0 0 0 0 0 0 0 0 0 0.25 0"/>
<feBlend mode="normal" in2="BackgroundImageFix" result="effect1_dropShadow"/>
<feBlend mode="normal" in="SourceGraphic" in2="effect1_dropShadow" result="shape"/>
</filter>
</defs>
</svg>
