<svg width="30" height="25" viewBox="0 0 30 25" fill="none" xmlns="http://www.w3.org/2000/svg">
<g filter="url(#filter0_d)">
<path d="M28 10.8281V10.1719C28 9.8093 27.7091 9.51562 27.35 9.51562H15.975V7.875H18.9C19.6178 7.875 20.2 7.28725 20.2 6.5625V1.3125C20.2 0.587754 19.6178 0 18.9 0H11.1C10.3822 0 9.8 0.587754 9.8 1.3125V6.5625C9.8 7.28725 10.3822 7.875 11.1 7.875H14.025V9.51562H2.65C2.29087 9.51562 2 9.8093 2 10.1719V10.8281C2 11.1907 2.29087 11.4844 2.65 11.4844H6.875V13.125H4.6C3.88216 13.125 3.3 13.7128 3.3 14.4375V19.6875C3.3 20.4122 3.88216 21 4.6 21H11.1C11.8178 21 12.4 20.4122 12.4 19.6875V14.4375C12.4 13.7128 11.8178 13.125 11.1 13.125H8.825V11.4844H21.175V13.125H18.9C18.1822 13.125 17.6 13.7128 17.6 14.4375V19.6875C17.6 20.4122 18.1822 21 18.9 21H25.4C26.1178 21 26.7 20.4122 26.7 19.6875V14.4375C26.7 13.7128 26.1178 13.125 25.4 13.125H23.125V11.4844H27.35C27.7091 11.4844 28 11.1907 28 10.8281ZM12.4 5.25V2.625H17.6V5.25H12.4ZM9.8 18.375H5.9V15.75H9.8V18.375ZM24.1 18.375H20.2V15.75H24.1V18.375Z" fill="#616776"/>
</g>
<defs>
<filter id="filter0_d" x="0" y="0" width="30" height="25" filterUnits="userSpaceOnUse" color-interpolation-filters="sRGB">
<feFlood flood-opacity="0" result="BackgroundImageFix"/>
<feColorMatrix in="SourceAlpha" type="matrix" values="0 0 0 0 0 0 0 0 0 0 0 0 0 0 0 0 0 0 127 0"/>
<feOffset dy="2"/>
<feGaussianBlur stdDeviation="1"/>
<feColorMatrix type="matrix" values="0 0 0 0 0 0 0 0 0 0 0 0 0 0 0 0 0 0 0.25 0"/>
<feBlend mode="normal" in2="BackgroundImageFix" result="effect1_dropShadow"/>
<feBlend mode="normal" in="SourceGraphic" in2="effect1_dropShadow" result="shape"/>
</filter>
</defs>
</svg>
