<svg width="32" height="28" viewBox="0 0 32 28" fill="none" xmlns="http://www.w3.org/2000/svg">
<g filter="url(#filter0_d)">
<path d="M14.4467 22.8138C13.894 23.6524 12.6933 24.1098 11.2448 23.9382C9.81539 23.7858 8.17632 22.9853 7.03278 21.6702C7.92855 21.1747 9.12927 21.1938 10.3872 21.4225C11.6641 21.6702 13.0173 22.1467 14.4467 22.8138Z" fill="#616776"/>
<path d="M14.6183 22.3372C14.6755 21.3271 14.2371 20.3169 13.6463 19.4021C13.0554 18.4873 12.3121 17.6868 11.3783 17.0388C10.8446 17.8774 10.8065 18.9637 11.3592 20.012C11.931 21.0412 13.1126 21.9941 14.6183 22.3372Z" fill="#616776"/>
<path d="M9.77722 20.2026C8.97674 20.7934 7.75697 20.8506 6.49907 20.2598C5.24118 19.688 4.0214 18.4301 3.39246 16.8292C4.38352 16.6386 5.508 17.0388 6.59437 17.6487C7.68073 18.2967 8.74803 19.1353 9.77722 20.2026Z" fill="#616776"/>
<path d="M10.1012 19.8024C10.5205 18.8876 10.5015 17.8203 10.2918 16.7911C10.0822 15.7619 9.66288 14.7899 9.01487 13.8941C8.23345 14.504 7.83321 15.4951 7.98569 16.6386C8.13816 17.7822 8.90052 19.0401 10.1012 19.8024Z" fill="#616776"/>
<path d="M6.44205 16.2574C5.62252 16.5052 4.63145 16.2383 3.77379 15.4379C2.91614 14.6565 2.24907 13.3604 2.11566 11.912C2.99238 11.9882 3.81191 12.579 4.55521 13.3604C5.29851 14.1419 5.94652 15.1329 6.44205 16.2574Z" fill="#616776"/>
<path d="M6.82304 16.0288C7.43293 15.4189 7.73787 14.5422 7.83317 13.6464C7.92846 12.7316 7.83317 11.7977 7.50917 10.8638C6.70869 11.1878 6.13692 11.912 5.98445 12.9031C5.81291 13.8751 6.07974 15.0758 6.82304 16.0288Z" fill="#616776"/>
<path d="M4.72662 11.9119C3.9452 11.9119 3.16378 11.3973 2.63013 10.4825C2.09648 9.58674 1.84871 8.29073 2.09648 6.99472C2.83978 7.28061 3.41155 8.02391 3.86897 8.90062C4.30732 9.77733 4.59321 10.8065 4.72662 11.9119Z" fill="#616776"/>
<path d="M5.12688 11.8168C5.83207 11.4546 6.3276 10.7685 6.6516 10.0062C6.97561 9.22474 7.14714 8.36709 7.08996 7.4332C6.30854 7.50943 5.62242 8.02403 5.22218 8.86262C4.82194 9.68216 4.7457 10.7876 5.12688 11.8168Z" fill="#616776"/>
<path d="M4.3834 7.6808C3.71634 7.47115 3.16363 6.84221 2.93492 5.92737C2.70621 5.0316 2.78245 3.84994 3.29704 2.76358C3.86881 3.18288 4.19281 3.9643 4.36435 4.82195C4.53588 5.71773 4.55494 6.68973 4.3834 7.6808Z" fill="#616776"/>
<path d="M4.74548 7.7C5.43161 7.56658 6.0415 7.09011 6.51797 6.49928C6.99445 5.88939 7.33751 5.14609 7.5281 4.28843C6.84197 4.19314 6.11773 4.49808 5.56502 5.12703C5.01231 5.75598 4.66925 6.70893 4.74548 7.7Z" fill="#616776"/>
<path d="M4.97448 4.82196C5.64155 4.26925 6.1752 3.50689 6.57544 2.68735C6.97568 1.84875 7.28062 0.933922 7.35686 3.05176e-05C6.4992 0.304975 5.71779 1.06733 5.27943 2.00123C4.82201 2.91606 4.6886 3.98336 4.97448 4.82196Z" fill="#616776"/>
<path d="M17.5535 22.8138C18.1062 23.6524 19.3069 24.1098 20.7554 23.9382C22.1848 23.7858 23.8239 22.9853 24.9674 21.6702C24.0716 21.1747 22.8709 21.1938 21.613 21.4225C20.3361 21.6702 18.9829 22.1467 17.5535 22.8138Z" fill="#616776"/>
<path d="M17.3817 22.3372C17.3245 21.3271 17.7629 20.3169 18.3537 19.4021C18.9446 18.4873 19.6879 17.6868 20.6218 17.0388C21.1554 17.8774 21.1935 18.9637 20.6408 20.012C20.0881 21.0412 18.8874 21.9941 17.3817 22.3372Z" fill="#616776"/>
<path d="M22.2228 20.2026C23.0233 20.7934 24.2431 20.8506 25.501 20.2598C26.7589 19.688 27.9787 18.4301 28.6076 16.8292C27.6165 16.6386 26.4921 17.0388 25.4057 17.6487C24.3193 18.2967 23.252 19.1353 22.2228 20.2026Z" fill="#616776"/>
<path d="M21.8989 19.8024C21.4796 18.8876 21.4986 17.8203 21.7083 16.7911C21.9179 15.7619 22.3372 14.7899 22.9852 13.8941C23.7666 14.504 24.1669 15.4951 24.0144 16.6386C23.8619 17.7822 23.1186 19.0401 21.8989 19.8024Z" fill="#616776"/>
<path d="M25.5583 16.2574C26.3778 16.5052 27.3689 16.2383 28.2266 15.4379C29.0842 14.6565 29.7513 13.3604 29.8847 11.912C29.008 11.9882 28.1884 12.579 27.4451 13.3604C26.7018 14.1419 26.0729 15.1329 25.5583 16.2574Z" fill="#616776"/>
<path d="M25.1768 16.0288C24.5669 15.4189 24.262 14.5422 24.1667 13.6464C24.0714 12.7316 24.1667 11.7977 24.4907 10.8638C25.2912 11.1878 25.8629 11.912 26.0154 12.9031C26.1869 13.8751 25.9201 15.0758 25.1768 16.0288Z" fill="#616776"/>
<path d="M27.2734 11.9119C28.0548 11.9119 28.8362 11.3973 29.3699 10.4825C29.9035 9.58674 30.1513 8.29073 29.9035 6.99472C29.1602 7.28061 28.5884 8.02391 28.131 8.90062C27.7117 9.77733 27.4068 10.8065 27.2734 11.9119Z" fill="#616776"/>
<path d="M26.8923 11.8168C26.1871 11.4546 25.6916 10.7685 25.3676 10.0062C25.0436 9.22474 24.872 8.36709 24.9292 7.4332C25.7106 7.50943 26.3968 8.02403 26.797 8.86262C27.1782 9.68216 27.2735 10.7876 26.8923 11.8168Z" fill="#616776"/>
<path d="M27.6166 7.6808C28.2837 7.47115 28.8364 6.84221 29.0651 5.92737C29.2938 5.0316 29.2176 3.84994 28.703 2.76358C28.1312 3.18288 27.8072 3.9643 27.6357 4.82195C27.4641 5.71773 27.4641 6.68973 27.6166 7.6808Z" fill="#616776"/>
<path d="M27.2734 7.7C26.5873 7.56658 25.9774 7.09011 25.5009 6.49928C25.0244 5.88939 24.6814 5.14609 24.4908 4.28843C25.1769 4.19314 25.9012 4.49808 26.4539 5.12703C26.9875 5.75598 27.3306 6.70893 27.2734 7.7Z" fill="#616776"/>
<path d="M27.0448 4.82196C26.3777 4.26925 25.8441 3.50689 25.4438 2.68735C25.0436 1.84875 24.7387 0.933922 24.6624 3.05176e-05C25.5201 0.304975 26.3015 1.06733 26.7398 2.00123C27.1973 2.91606 27.3116 3.98336 27.0448 4.82196Z" fill="#616776"/>
<path d="M13.4278 7.73794L16.2701 10.4511L19.1125 7.73794C21.0354 7.90116 22.549 9.4236 22.549 11.3019V12.415C22.549 13.124 21.9464 13.6993 21.2035 13.6993H11.3368C10.5939 13.6993 9.99128 13.124 9.99128 12.415V11.3019C9.99128 9.4236 11.5049 7.90116 13.4278 7.73794ZM21.652 5.13721C20.8868 5.13721 20.2 4.82951 19.7123 4.34254C19.289 5.78472 17.9183 6.84962 16.2701 6.84962C14.2884 6.84962 12.6822 5.31648 12.6822 3.42479C12.6822 1.5331 14.2884 -4.57764e-05 16.2701 -4.57764e-05C17.6829 -4.57764e-05 18.8938 0.786596 19.4797 1.92107C19.9674 1.27892 20.755 0.856163 21.652 0.856163C21.652 1.74983 21.1727 2.53647 20.4439 2.99669C21.1727 3.4569 21.652 4.24354 21.652 5.13721ZM17.6156 2.56858H14.9247C14.4285 2.56858 14.0277 2.9512 14.0277 3.42479H18.5126C18.5126 2.9512 18.1118 2.56858 17.6156 2.56858Z" fill="#616776"/>
</g>
<defs>
<filter id="filter0_d" x="0" y="-4.57764e-05" width="32" height="27.974" filterUnits="userSpaceOnUse" color-interpolation-filters="sRGB">
<feFlood flood-opacity="0" result="BackgroundImageFix"/>
<feColorMatrix in="SourceAlpha" type="matrix" values="0 0 0 0 0 0 0 0 0 0 0 0 0 0 0 0 0 0 127 0"/>
<feOffset dy="2"/>
<feGaussianBlur stdDeviation="1"/>
<feColorMatrix type="matrix" values="0 0 0 0 0 0 0 0 0 0 0 0 0 0 0 0 0 0 0.25 0"/>
<feBlend mode="normal" in2="BackgroundImageFix" result="effect1_dropShadow"/>
<feBlend mode="normal" in="SourceGraphic" in2="effect1_dropShadow" result="shape"/>
</filter>
</defs>
</svg>
