<svg width="23" height="23" viewBox="0 0 23 23" fill="none" xmlns="http://www.w3.org/2000/svg">
<g filter="url(#filter0_d)">
<path d="M20.8571 15.0358C20.8571 14.9421 20.8571 14.8483 20.817 14.7546C20.7232 14.4733 20.067 14.1787 19.7991 14.0448C19.0357 13.6162 18.2589 13.201 17.5089 12.7591C17.1607 12.5448 16.7321 12.143 16.317 12.143C15.5 12.143 14.308 14.5671 13.5848 14.5671C13.2232 14.5671 12.7545 14.2323 12.433 14.0448C9.99554 12.6921 8.30804 11.0046 6.95536 8.56709C6.76786 8.24566 6.43304 7.77691 6.43304 7.4153C6.43304 6.69209 8.85714 5.50012 8.85714 4.68316C8.85714 4.26798 8.45536 3.83941 8.24107 3.49119C7.79911 2.74119 7.38393 1.96441 6.95536 1.20101C6.82143 0.933157 6.52679 0.276907 6.24554 0.183157C6.15179 0.142978 6.05804 0.142978 5.96429 0.142978C5.48214 0.142978 4.54464 0.357265 4.10268 0.558157C3.44643 0.839407 3.01786 1.58941 2.68304 2.19209C2.25446 2.98226 2 3.78584 2 4.68316C2 5.92869 2.50893 7.05369 2.92411 8.19209C3.21875 9.00905 3.58036 9.79923 4.03571 10.5358C5.44196 12.8126 8.1875 15.5582 10.4643 16.9644C11.2009 17.4198 11.9911 17.7814 12.808 18.076C13.9464 18.4912 15.0714 19.0001 16.317 19.0001C17.2143 19.0001 18.0179 18.7457 18.808 18.3171C19.4107 17.9823 20.1607 17.5537 20.442 16.8974C20.6429 16.4555 20.8571 15.518 20.8571 15.0358Z" fill="#616776"/>
</g>
<defs>
<filter id="filter0_d" x="0" y="0.142975" width="22.8571" height="22.8571" filterUnits="userSpaceOnUse" color-interpolation-filters="sRGB">
<feFlood flood-opacity="0" result="BackgroundImageFix"/>
<feColorMatrix in="SourceAlpha" type="matrix" values="0 0 0 0 0 0 0 0 0 0 0 0 0 0 0 0 0 0 127 0"/>
<feOffset dy="2"/>
<feGaussianBlur stdDeviation="1"/>
<feColorMatrix type="matrix" values="0 0 0 0 0 0 0 0 0 0 0 0 0 0 0 0 0 0 0.25 0"/>
<feBlend mode="normal" in2="BackgroundImageFix" result="effect1_dropShadow"/>
<feBlend mode="normal" in="SourceGraphic" in2="effect1_dropShadow" result="shape"/>
</filter>
</defs>
</svg>
