<svg width="30" height="24" viewBox="0 0 30 24" fill="none" xmlns="http://www.w3.org/2000/svg">
<g filter="url(#filter0_d)">
<path d="M14.5717 13.028C14.5717 14.0961 13.8719 14.8572 13.0002 14.8572H6.71453C5.84288 14.8572 5.1431 14.0961 5.1431 13.028C5.1431 11.1251 5.60962 9.01348 7.54935 9.01348C8.15091 9.35723 8.96118 9.94652 9.85739 9.94652C10.7536 9.94652 11.5639 9.35723 12.1654 9.01348C14.1052 9.01348 14.5717 11.1251 14.5717 13.028ZM12.6442 6.64406C12.6442 8.19094 11.392 9.4309 9.85739 9.4309C8.32279 9.4309 7.07056 8.19094 7.07056 6.64406C7.07056 5.10947 8.32279 3.85723 9.85739 3.85723C11.392 3.85723 12.6442 5.10947 12.6442 6.64406ZM24.0002 12.8929C24.0002 13.1139 23.8284 13.2858 23.6074 13.2858H16.536C16.315 13.2858 16.1431 13.1139 16.1431 12.8929V12.1072C16.1431 11.8863 16.315 11.7144 16.536 11.7144H23.6074C23.8284 11.7144 24.0002 11.8863 24.0002 12.1072V12.8929ZM24.0002 9.70098C24.0002 9.94652 23.8038 10.1429 23.5583 10.1429H16.5851C16.3395 10.1429 16.1431 9.94652 16.1431 9.70098V9.01348C16.1431 8.76795 16.3395 8.57152 16.5851 8.57152H23.5583C23.8038 8.57152 24.0002 8.76795 24.0002 9.01348V9.70098ZM24.0002 6.60723C24.0002 6.82822 23.8284 7.00009 23.6074 7.00009H16.536C16.315 7.00009 16.1431 6.82822 16.1431 6.60723V5.82152C16.1431 5.60054 16.315 5.42866 16.536 5.42866H23.6074C23.8284 5.42866 24.0002 5.60054 24.0002 5.82152V6.60723ZM27.1431 2.67866C27.1431 1.59831 26.2592 0.714376 25.1788 0.714376H3.96453C2.88417 0.714376 2.00024 1.59831 2.00024 2.67866V17.6072C2.00024 18.6876 2.88417 19.5715 3.96453 19.5715H8.28596V18.3929C8.28596 18.172 8.45783 18.0001 8.67882 18.0001H9.46453C9.68551 18.0001 9.85739 18.172 9.85739 18.3929V19.5715H19.286V18.3929C19.286 18.172 19.4578 18.0001 19.6788 18.0001H20.4645C20.6855 18.0001 20.8574 18.172 20.8574 18.3929V19.5715H25.1788C26.2592 19.5715 27.1431 18.6876 27.1431 17.6072V2.67866Z" fill="#616776"/>
</g>
<defs>
<filter id="filter0_d" x="0.000244141" y="0.714371" width="29.1429" height="22.8571" filterUnits="userSpaceOnUse" color-interpolation-filters="sRGB">
<feFlood flood-opacity="0" result="BackgroundImageFix"/>
<feColorMatrix in="SourceAlpha" type="matrix" values="0 0 0 0 0 0 0 0 0 0 0 0 0 0 0 0 0 0 127 0"/>
<feOffset dy="2"/>
<feGaussianBlur stdDeviation="1"/>
<feColorMatrix type="matrix" values="0 0 0 0 0 0 0 0 0 0 0 0 0 0 0 0 0 0 0.25 0"/>
<feBlend mode="normal" in2="BackgroundImageFix" result="effect1_dropShadow"/>
<feBlend mode="normal" in="SourceGraphic" in2="effect1_dropShadow" result="shape"/>
</filter>
</defs>
</svg>
