<svg width="21" height="22" viewBox="0 0 21 22" fill="none" xmlns="http://www.w3.org/2000/svg">
<path d="M14.1429 9.35717C14.1429 12.3895 11.6752 14.8572 8.64286 14.8572C5.61049 14.8572 3.14286 12.3895 3.14286 9.35717C3.14286 6.32481 5.61049 3.85717 8.64286 3.85717C11.6752 3.85717 14.1429 6.32481 14.1429 9.35717ZM20.4286 19.5715C20.4286 19.154 20.2567 18.7489 19.9743 18.4665L15.7634 14.2556C16.7578 12.8192 17.2857 11.1005 17.2857 9.35717C17.2857 4.5815 13.4185 0.714316 8.64286 0.714315C3.86719 0.714315 2.76424e-07 4.5815 4.77003e-07 9.35717C6.77582e-07 14.1328 3.86719 18 8.64286 18C10.3862 18 12.1049 17.4721 13.5413 16.4777L17.7522 20.6764C18.0346 20.971 18.4397 21.1429 18.8571 21.1429C19.7165 21.1429 20.4286 20.4308 20.4286 19.5715Z" fill="#3F4451"/>
</svg>
