<svg width="22" height="24" viewBox="0 0 22 24" fill="none" xmlns="http://www.w3.org/2000/svg">
<g filter="url(#filter0_d)">
<path d="M19.2371 16.1463C19.2371 15.066 18.7829 14.0224 18.0094 13.2613L10.8766 6.12847C10.3978 5.6374 9.73486 5.35503 9.04736 5.35503C7.69692 5.35503 6.64111 6.41084 6.64111 7.76128C6.64111 8.43651 6.92348 9.11173 7.41455 9.59052L12.448 14.624C12.5217 14.6977 12.6199 14.7468 12.7181 14.7468C12.9759 14.7468 13.6757 14.047 13.6757 13.7892C13.6757 13.691 13.6266 13.5928 13.5529 13.5191L8.51946 8.48561C8.33531 8.28918 8.21254 8.03137 8.21254 7.76128C8.21254 7.28249 8.56857 6.93874 9.03509 6.93874C9.30518 6.93874 9.57527 7.04923 9.77169 7.23338L16.9045 14.3662C17.371 14.8327 17.6779 15.4711 17.6779 16.1463C17.6779 17.1899 16.9045 17.9633 15.861 17.9633C15.198 17.9633 14.5474 17.6564 14.0808 17.1899L4.55406 7.65079C3.96477 7.06151 3.62102 6.26351 3.62102 5.42869C3.62102 3.69767 4.97147 2.28584 6.71477 2.28584C7.5496 2.28584 8.34759 2.65414 8.93687 3.23115L16.3766 10.6832C16.4503 10.7568 16.5485 10.8059 16.659 10.8059C16.9168 10.8059 17.6043 10.1184 17.6043 9.86061C17.6043 9.7624 17.5552 9.66418 17.4815 9.59052L10.0541 2.15079C9.15785 1.26686 7.95473 0.763514 6.7025 0.763514C4.09982 0.763514 2.0496 2.83829 2.0496 5.44097C2.0496 6.68092 2.56522 7.88405 3.43687 8.76798L12.9759 18.2948C13.7371 19.0559 14.7806 19.5224 15.861 19.5224C17.7762 19.5224 19.2371 18.0615 19.2371 16.1463Z" fill="#616776"/>
</g>
<defs>
<filter id="filter0_d" x="0.0498047" y="0.763489" width="21.1875" height="22.7589" filterUnits="userSpaceOnUse" color-interpolation-filters="sRGB">
<feFlood flood-opacity="0" result="BackgroundImageFix"/>
<feColorMatrix in="SourceAlpha" type="matrix" values="0 0 0 0 0 0 0 0 0 0 0 0 0 0 0 0 0 0 127 0"/>
<feOffset dy="2"/>
<feGaussianBlur stdDeviation="1"/>
<feColorMatrix type="matrix" values="0 0 0 0 0 0 0 0 0 0 0 0 0 0 0 0 0 0 0.25 0"/>
<feBlend mode="normal" in2="BackgroundImageFix" result="effect1_dropShadow"/>
<feBlend mode="normal" in="SourceGraphic" in2="effect1_dropShadow" result="shape"/>
</filter>
</defs>
</svg>
