<svg width="29" height="27" viewBox="0 0 29 27" fill="none" xmlns="http://www.w3.org/2000/svg">
<g filter="url(#filter0_d)">
<path d="M16.2143 18.8437C16.2143 19.0848 16.0268 19.2857 15.7857 19.2857H13.2143C12.9732 19.2857 12.7857 19.0848 12.7857 18.8437V16.2991C12.7857 16.058 12.9732 15.8571 13.2143 15.8571H15.7857C16.0268 15.8571 16.2143 16.058 16.2143 16.2991V18.8437ZM16.1875 13.8348C16.1741 14.0089 15.9732 14.1429 15.7321 14.1429H13.2545C13 14.1429 12.7991 14.0089 12.7991 13.8348L12.5714 7.71428C12.5714 7.63393 12.6116 7.5 12.7054 7.43303C12.7857 7.36607 12.9063 7.28571 13.0268 7.28571H15.9732C16.0938 7.28571 16.2143 7.36607 16.2946 7.43303C16.3884 7.5 16.4286 7.60714 16.4286 7.6875L16.1875 13.8348ZM16 1.32589C15.7054 0.776785 15.1295 0.42857 14.5 0.42857C13.8705 0.42857 13.2946 0.776785 13 1.32589L2.71429 20.183C2.41964 20.7054 2.43304 21.3482 2.74107 21.8705C3.04911 22.3929 3.61161 22.7143 4.21429 22.7143H24.7857C25.3884 22.7143 25.9509 22.3929 26.2589 21.8705C26.567 21.3482 26.5804 20.7054 26.2857 20.183L16 1.32589Z" fill="#616776"/>
</g>
<defs>
<filter id="filter0_d" x="0.501404" y="0.428558" width="27.9972" height="26.2857" filterUnits="userSpaceOnUse" color-interpolation-filters="sRGB">
<feFlood flood-opacity="0" result="BackgroundImageFix"/>
<feColorMatrix in="SourceAlpha" type="matrix" values="0 0 0 0 0 0 0 0 0 0 0 0 0 0 0 0 0 0 127 0"/>
<feOffset dy="2"/>
<feGaussianBlur stdDeviation="1"/>
<feColorMatrix type="matrix" values="0 0 0 0 0 0 0 0 0 0 0 0 0 0 0 0 0 0 0.25 0"/>
<feBlend mode="normal" in2="BackgroundImageFix" result="effect1_dropShadow"/>
<feBlend mode="normal" in="SourceGraphic" in2="effect1_dropShadow" result="shape"/>
</filter>
</defs>
</svg>
